# xmcd
#
# Track frame offsets:
#	182
#	17392
#	37937
#	53222
#	71327
#	87682
#	100690
#	121985
#	139955
#	154025
#	171912
#
# Disc length: 2588 seconds
#
# Revision: 1
# Processed by: cddbd v1.5.2PL0 Copyright (c) Steve Scherf et al.
# Submitted via: audiograbber 1.83.01
#
DISCID=890a1a0b
DTITLE=David Nail - David Nail
DYEAR=2002
DGENRE=Country
TTITLE0=Memphis
TTITLE1=See Me Through
TTITLE2=Without You
TTITLE3=Still Hurts
TTITLE4=Somebody New
TTITLE5=I Know I Shouldn't
TTITLE6=Finding My Way To You
TTITLE7=I Ain't Slowin' Down
TTITLE8=This Time Last Year
TTITLE9=Why
TTITLE10=Seattle
EXTD=
EXTT0=
EXTT1=
EXTT2=
EXTT3=
EXTT4=
EXTT5=
EXTT6=
EXTT7=
EXTT8=
EXTT9=
EXTT10=
PLAYORDER=
